<svg xmlns="http://www.w3.org/2000/svg" viewBox="0 0 800 600" fill="none">
  <defs>
    <linearGradient id="bg" x1="0" y1="0" x2="800" y2="600" gradientUnits="userSpaceOnUse">
      <stop offset="0%" stop-color="#f0faf3"/>
      <stop offset="100%" stop-color="#e2f0e6"/>
    </linearGradient>
    <linearGradient id="barGrad" x1="0" y1="1" x2="0" y2="0">
      <stop offset="0%" stop-color="#096a2e"/>
      <stop offset="100%" stop-color="#0b9d3e"/>
    </linearGradient>
    <linearGradient id="barLight" x1="0" y1="1" x2="0" y2="0">
      <stop offset="0%" stop-color="#096a2e" stop-opacity="0.25"/>
      <stop offset="100%" stop-color="#0b9d3e" stop-opacity="0.15"/>
    </linearGradient>
    <linearGradient id="lineGrad" x1="0" y1="0" x2="1" y2="0">
      <stop offset="0%" stop-color="#096a2e"/>
      <stop offset="100%" stop-color="#0b9d3e"/>
    </linearGradient>
    <filter id="shadow" x="-4%" y="-4%" width="108%" height="108%">
      <feDropShadow dx="0" dy="4" stdDeviation="12" flood-color="#0f172a" flood-opacity="0.08"/>
    </filter>
    <filter id="shadowSm" x="-4%" y="-4%" width="108%" height="108%">
      <feDropShadow dx="0" dy="2" stdDeviation="6" flood-color="#0f172a" flood-opacity="0.06"/>
    </filter>
    <clipPath id="roundCard">
      <rect x="60" y="40" width="680" height="520" rx="24"/>
    </clipPath>
  </defs>

  <!-- Background -->
  <rect width="800" height="600" rx="20" fill="url(#bg)"/>

  <!-- Main dashboard card -->
  <rect x="60" y="40" width="680" height="520" rx="24" fill="white" filter="url(#shadow)"/>

  <!-- Top bar -->
  <rect x="60" y="40" width="680" height="56" rx="24" fill="white"/>
  <rect x="60" y="72" width="680" height="24" fill="white"/>
  <line x1="60" y1="96" x2="740" y2="96" stroke="#e2e8f0" stroke-width="1"/>

  <!-- Window dots -->
  <circle cx="96" cy="68" r="6" fill="#e2e8f0"/>
  <circle cx="116" cy="68" r="6" fill="#e2e8f0"/>
  <circle cx="136" cy="68" r="6" fill="#e2e8f0"/>

  <!-- Title bar text placeholder -->
  <rect x="180" y="60" width="120" height="8" rx="4" fill="#096a2e" opacity="0.15"/>
  <rect x="180" y="74" width="80" height="6" rx="3" fill="#94a3b8" opacity="0.3"/>

  <!-- KPI Cards row -->
  <!-- Card 1 -->
  <rect x="92" y="118" width="185" height="88" rx="14" fill="white" stroke="#e2e8f0" stroke-width="1" filter="url(#shadowSm)"/>
  <rect x="112" y="134" width="56" height="6" rx="3" fill="#94a3b8" opacity="0.4"/>
  <text x="112" y="162" font-family="system-ui, -apple-system, sans-serif" font-size="22" font-weight="700" fill="#0f172a">£2.4M</text>
  <rect x="112" y="176" width="40" height="12" rx="6" fill="#096a2e" opacity="0.12"/>
  <text x="120" y="186" font-family="system-ui, sans-serif" font-size="9" font-weight="600" fill="#096a2e">+18%</text>

  <!-- Card 2 -->
  <rect x="296" y="118" width="185" height="88" rx="14" fill="white" stroke="#e2e8f0" stroke-width="1" filter="url(#shadowSm)"/>
  <rect x="316" y="134" width="48" height="6" rx="3" fill="#94a3b8" opacity="0.4"/>
  <text x="316" y="162" font-family="system-ui, -apple-system, sans-serif" font-size="22" font-weight="700" fill="#0f172a">94.2%</text>
  <rect x="316" y="176" width="36" height="12" rx="6" fill="#096a2e" opacity="0.12"/>
  <text x="322" y="186" font-family="system-ui, sans-serif" font-size="9" font-weight="600" fill="#096a2e">+3.1%</text>

  <!-- Card 3 -->
  <rect x="500" y="118" width="185" height="88" rx="14" fill="white" stroke="#e2e8f0" stroke-width="1" filter="url(#shadowSm)"/>
  <rect x="520" y="134" width="64" height="6" rx="3" fill="#94a3b8" opacity="0.4"/>
  <text x="520" y="162" font-family="system-ui, -apple-system, sans-serif" font-size="22" font-weight="700" fill="#0f172a">1,247</text>
  <rect x="520" y="176" width="40" height="12" rx="6" fill="#096a2e" opacity="0.12"/>
  <text x="528" y="186" font-family="system-ui, sans-serif" font-size="9" font-weight="600" fill="#096a2e">+24%</text>

  <!-- Chart area - Bar chart -->
  <rect x="92" y="228" width="390" height="300" rx="14" fill="white" stroke="#e2e8f0" stroke-width="1" filter="url(#shadowSm)"/>
  <rect x="112" y="244" width="80" height="7" rx="3.5" fill="#0f172a" opacity="0.7"/>
  <rect x="112" y="258" width="100" height="5" rx="2.5" fill="#94a3b8" opacity="0.3"/>

  <!-- Grid lines -->
  <line x1="112" y1="295" x2="450" y2="295" stroke="#e2e8f0" stroke-width="1" stroke-dasharray="4,4"/>
  <line x1="112" y1="340" x2="450" y2="340" stroke="#e2e8f0" stroke-width="1" stroke-dasharray="4,4"/>
  <line x1="112" y1="385" x2="450" y2="385" stroke="#e2e8f0" stroke-width="1" stroke-dasharray="4,4"/>
  <line x1="112" y1="430" x2="450" y2="430" stroke="#e2e8f0" stroke-width="1" stroke-dasharray="4,4"/>
  <line x1="112" y1="475" x2="450" y2="475" stroke="#e2e8f0" stroke-width="1" stroke-dasharray="4,4"/>
  <line x1="112" y1="500" x2="450" y2="500" stroke="#e2e8f0" stroke-width="1"/>

  <!-- Bars -->
  <rect x="128" y="370" width="28" height="130" rx="4" fill="url(#barLight)"/>
  <rect x="128" y="410" width="28" height="90" rx="4" fill="url(#barGrad)"/>

  <rect x="172" y="340" width="28" height="160" rx="4" fill="url(#barLight)"/>
  <rect x="172" y="365" width="28" height="135" rx="4" fill="url(#barGrad)"/>

  <rect x="216" y="320" width="28" height="180" rx="4" fill="url(#barLight)"/>
  <rect x="216" y="340" width="28" height="160" rx="4" fill="url(#barGrad)"/>

  <rect x="260" y="295" width="28" height="205" rx="4" fill="url(#barLight)"/>
  <rect x="260" y="315" width="28" height="185" rx="4" fill="url(#barGrad)"/>

  <rect x="304" y="310" width="28" height="190" rx="4" fill="url(#barLight)"/>
  <rect x="304" y="335" width="28" height="165" rx="4" fill="url(#barGrad)"/>

  <rect x="348" y="280" width="28" height="220" rx="4" fill="url(#barLight)"/>
  <rect x="348" y="295" width="28" height="205" rx="4" fill="url(#barGrad)"/>

  <rect x="392" y="290" width="28" height="210" rx="4" fill="url(#barLight)"/>
  <rect x="392" y="300" width="28" height="200" rx="4" fill="url(#barGrad)"/>

  <!-- Right side - Line chart -->
  <rect x="500" y="228" width="185" height="145" rx="14" fill="white" stroke="#e2e8f0" stroke-width="1" filter="url(#shadowSm)"/>
  <rect x="520" y="244" width="60" height="7" rx="3.5" fill="#0f172a" opacity="0.7"/>
  <rect x="520" y="258" width="80" height="5" rx="2.5" fill="#94a3b8" opacity="0.3"/>

  <!-- Line chart path -->
  <polyline points="520,340 540,328 560,332 580,315 600,310 620,298 640,285 660,278" stroke="url(#lineGrad)" stroke-width="2.5" fill="none" stroke-linecap="round" stroke-linejoin="round"/>
  <!-- Area under line -->
  <polygon points="520,340 540,328 560,332 580,315 600,310 620,298 640,285 660,278 660,350 520,350" fill="#096a2e" opacity="0.08"/>
  <!-- Data dots -->
  <circle cx="580" cy="315" r="3.5" fill="#096a2e"/>
  <circle cx="620" cy="298" r="3.5" fill="#096a2e"/>
  <circle cx="660" cy="278" r="3.5" fill="#096a2e"/>

  <!-- Right side - Donut/ring chart card -->
  <rect x="500" y="390" width="185" height="138" rx="14" fill="white" stroke="#e2e8f0" stroke-width="1" filter="url(#shadowSm)"/>
  <rect x="520" y="406" width="72" height="7" rx="3.5" fill="#0f172a" opacity="0.7"/>

  <!-- Donut chart -->
  <circle cx="556" cy="478" r="32" stroke="#e2e8f0" stroke-width="8" fill="none"/>
  <circle cx="556" cy="478" r="32" stroke="#096a2e" stroke-width="8" fill="none" stroke-dasharray="140 201" stroke-dashoffset="-50" stroke-linecap="round"/>
  <circle cx="556" cy="478" r="32" stroke="#0b9d3e" stroke-width="8" fill="none" stroke-dasharray="50 201" stroke-dashoffset="-190" stroke-linecap="round" opacity="0.5"/>
  <text x="556" y="482" font-family="system-ui, sans-serif" font-size="13" font-weight="700" fill="#0f172a" text-anchor="middle">72%</text>

  <!-- Legend dots -->
  <circle cx="620" cy="452" r="4" fill="#096a2e"/>
  <rect x="630" y="448" width="36" height="5" rx="2.5" fill="#94a3b8" opacity="0.35"/>
  <circle cx="620" cy="470" r="4" fill="#0b9d3e" opacity="0.5"/>
  <rect x="630" y="466" width="28" height="5" rx="2.5" fill="#94a3b8" opacity="0.35"/>
  <circle cx="620" cy="488" r="4" fill="#e2e8f0"/>
  <rect x="630" y="484" width="32" height="5" rx="2.5" fill="#94a3b8" opacity="0.35"/>

  <!-- Decorative corner elements -->
  <circle cx="750" cy="50" r="80" fill="#096a2e" opacity="0.03"/>
  <circle cx="70" cy="560" r="60" fill="#096a2e" opacity="0.03"/>
</svg>