<svg xmlns="http://www.w3.org/2000/svg" version="1.1" xmlns:xlink="http://www.w3.org/1999/xlink" xmlns:svgjs="http://svgjs.dev/svgjs" width="820" height="623" viewBox="180 0 820 623"><g transform="matrix(1,0,0,1,-0.6060606060606233,0.2522267206477409)"><svg viewBox="0 0 396 247" data-background-color="#729343" preserveAspectRatio="xMidYMid meet" height="623" width="1000" xmlns="http://www.w3.org/2000/svg" xmlns:xlink="http://www.w3.org/1999/xlink"><g id="tight-bounds" transform="matrix(1,0,0,1,0.2400000000000091,-0.09999999999999432)"><svg viewBox="0 0 395.52 247.2" height="247.2" width="395.52"><g><svg></svg></g><g><svg viewBox="0 0 395.52 247.2" height="247.2" width="395.52"><g transform="matrix(1,0,0,1,75.54432,109.8242441618497)"><svg viewBox="0 0 244.43135999999998 27.551511676300578" height="27.551511676300578" width="244.43135999999998"><g><svg viewBox="0 0 244.43135999999998 27.551511676300578" height="27.551511676300578" width="244.43135999999998"><g><svg viewBox="0 0 244.43135999999998 27.551511676300578" height="27.551511676300578" width="244.43135999999998"><g><svg viewBox="0 0 244.43135999999998 27.551511676300578" height="27.551511676300578" width="244.43135999999998"><g><svg viewBox="0 0 244.43135999999998 27.551511676300578" height="27.551511676300578" width="244.43135999999998"><g><svg viewBox="0 0 244.43135999999998 27.551511676300578" height="27.551511676300578" width="244.43135999999998"><g transform="matrix(1,0,0,1,0,0)"><svg width="244.43135999999998" viewBox="2.75 -34.849998474121094 397.8599853515625 44.849998474121094" height="27.551511676300578" data-palette-color="#096a2e"><path d="M16.65 0.8Q12.35 0.8 9.22-1.33 6.1-3.45 4.42-7.43 2.75-11.4 2.75-16.95L2.75-16.95Q2.75-22.55 4.38-26.58 6-30.6 9.03-32.73 12.05-34.85 16.2-34.85L16.2-34.85Q20.45-34.85 23.48-32.98 26.5-31.1 28.2-27.7L28.2-27.7 25.2-25.95Q23.6-28.9 21.45-30.18 19.3-31.45 16.2-31.45L16.2-31.45Q11.75-31.45 9.22-27.63 6.7-23.8 6.7-17L6.7-17Q6.7-12.55 7.85-9.3 9-6.05 11.15-4.33 13.3-2.6 16.15-2.6L16.15-2.6Q19.7-2.6 21.68-4.17 23.65-5.75 25.35-9.1L25.35-9.1 28.5-7.2Q26.7-3.3 23.73-1.25 20.75 0.8 16.65 0.8L16.65 0.8ZM51.75-23.4L55.15-23.4 55.15 0 51.75 0 51.75-3.45Q50.3-1.45 48.2-0.33 46.1 0.8 43.6 0.8L43.6 0.8Q40.25 0.8 37.6-0.8 34.95-2.4 33.45-5.25 31.95-8.1 31.95-11.75L31.95-11.75Q31.95-15.35 33.42-18.18 34.9-21 37.52-22.6 40.15-24.2 43.5-24.2L43.5-24.2Q46.05-24.2 48.17-23.08 50.3-21.95 51.75-19.9L51.75-19.9 51.75-23.4ZM43.5-2.3Q45.9-2.3 47.77-3.5 49.65-4.7 50.7-6.85 51.75-9 51.75-11.7L51.75-11.7Q51.75-14.4 50.7-16.55 49.65-18.7 47.77-19.9 45.9-21.1 43.5-21.1L43.5-21.1Q41.15-21.1 39.3-19.9 37.45-18.7 36.4-16.57 35.35-14.45 35.35-11.75L35.35-11.75Q35.35-9 36.4-6.85 37.45-4.7 39.3-3.5 41.15-2.3 43.5-2.3L43.5-2.3ZM72.95-24.2Q74.15-24.2 75.25-23.85L75.25-23.85 75.25-20.75Q74.2-21.25 72.95-21.25L72.95-21.25Q70.8-21.25 68.95-20.05 67.09-18.85 65.97-16.57 64.84-14.3 64.84-11.2L64.84-11.2 64.84 0 61.45 0 61.45-23.4 64.84-23.4 64.84-18.7Q66.2-21.3 68.27-22.75 70.34-24.2 72.95-24.2L72.95-24.2ZM89.99-24.2Q93.34-24.2 95.99-22.6 98.64-21 100.14-18.15 101.64-15.3 101.64-11.65L101.64-11.65Q101.64-8.05 100.17-5.23 98.69-2.4 96.07-0.8 93.44 0.8 90.09 0.8L90.09 0.8Q87.54 0.8 85.42-0.33 83.29-1.45 81.84-3.5L81.84-3.5 81.84 10 78.44 10 78.44-23.4 81.84-23.4 81.84-19.95Q83.29-21.95 85.39-23.08 87.49-24.2 89.99-24.2L89.99-24.2ZM90.09-2.3Q92.44-2.3 94.29-3.5 96.14-4.7 97.19-6.83 98.24-8.95 98.24-11.65L98.24-11.65Q98.24-14.4 97.19-16.55 96.14-18.7 94.29-19.9 92.44-21.1 90.09-21.1L90.09-21.1Q87.69-21.1 85.82-19.9 83.94-18.7 82.89-16.55 81.84-14.4 81.84-11.7L81.84-11.7Q81.84-9 82.89-6.85 83.94-4.7 85.82-3.5 87.69-2.3 90.09-2.3L90.09-2.3ZM116.54-24.2Q119.69-24.2 122.24-22.65 124.79-21.1 126.24-18.43 127.69-15.75 127.69-12.45L127.69-12.45Q127.69-11.5 127.64-11L127.64-11 108.39-11Q108.59-7.4 110.74-4.85 112.89-2.3 116.59-2.3L116.59-2.3Q119.59-2.3 121.57-3.43 123.54-4.55 124.74-6.55L124.74-6.55 127.44-4.75Q125.79-2.15 123.09-0.68 120.39 0.8 116.69 0.8L116.69 0.8Q113.29 0.8 110.64-0.8 107.99-2.4 106.49-5.25 104.99-8.1 104.99-11.7L104.99-11.7Q104.99-15.3 106.47-18.15 107.94-21 110.57-22.6 113.19-24.2 116.54-24.2L116.54-24.2ZM108.59-13.8L124.29-13.8Q123.79-17.45 121.84-19.28 119.89-21.1 116.54-21.1L116.54-21.1Q113.29-21.1 111.22-19.03 109.14-16.95 108.59-13.8L108.59-13.8ZM143.84-24.2Q146.29-24.2 148.36-23.2 150.44-22.2 151.66-20.25 152.89-18.3 152.89-15.65L152.89-15.65 152.89 0 149.49 0 149.49-14.15Q149.49-21.1 143.29-21.1L143.29-21.1Q139.69-21.1 137.89-18.55 136.09-16 136.09-11.7L136.09-11.7 136.09 0 132.69 0 132.69-23.4 136.09-23.4 136.09-19.5Q137.29-21.75 139.26-22.98 141.24-24.2 143.84-24.2L143.84-24.2ZM164.19 0L160.79 0 160.79-20.3 156.79-20.3 156.79-23.4 160.79-23.4 160.79-31.15 164.19-31.15 164.19-23.4 169.59-23.4 169.59-20.3 164.19-20.3 164.19 0ZM183.38-24.2Q186.53-24.2 189.08-22.65 191.63-21.1 193.08-18.43 194.53-15.75 194.53-12.45L194.53-12.45Q194.53-11.5 194.48-11L194.48-11 175.23-11Q175.43-7.4 177.58-4.85 179.73-2.3 183.43-2.3L183.43-2.3Q186.43-2.3 188.41-3.43 190.38-4.55 191.58-6.55L191.58-6.55 194.28-4.75Q192.63-2.15 189.93-0.68 187.23 0.8 183.53 0.8L183.53 0.8Q180.13 0.8 177.48-0.8 174.83-2.4 173.33-5.25 171.83-8.1 171.83-11.7L171.83-11.7Q171.83-15.3 173.31-18.15 174.78-21 177.41-22.6 180.03-24.2 183.38-24.2L183.38-24.2ZM175.43-13.8L191.13-13.8Q190.63-17.45 188.68-19.28 186.73-21.1 183.38-21.1L183.38-21.1Q180.13-21.1 178.06-19.03 175.98-16.95 175.43-13.8L175.43-13.8ZM211.03-24.2Q212.23-24.2 213.33-23.85L213.33-23.85 213.33-20.75Q212.28-21.25 211.03-21.25L211.03-21.25Q208.88-21.25 207.03-20.05 205.18-18.85 204.06-16.57 202.93-14.3 202.93-11.2L202.93-11.2 202.93 0 199.53 0 199.53-23.4 202.93-23.4 202.93-18.7Q204.28-21.3 206.36-22.75 208.43-24.2 211.03-24.2L211.03-24.2ZM224.73 0.8Q221.33 0.8 218.75-0.65 216.18-2.1 214.83-4.75L214.83-4.75 217.88-6.25Q219.73-2.3 225.13-2.3L225.13-2.3Q227.73-2.3 229.43-3.25 231.13-4.2 231.13-6.2L231.13-6.2Q231.13-8.25 229.75-9.25 228.38-10.25 224.93-10.55L224.93-10.55Q220.13-10.95 218.05-12.7 215.98-14.45 215.98-17.35L215.98-17.35Q215.98-20.6 218.33-22.4 220.68-24.2 224.78-24.2L224.78-24.2Q231.73-24.2 234.23-18.7L234.23-18.7 231.18-17.2Q230.33-19.2 228.7-20.15 227.08-21.1 224.53-21.1L224.53-21.1Q221.93-21.1 220.55-20.15 219.18-19.2 219.18-17.45L219.18-17.45Q219.18-15.8 220.65-14.78 222.13-13.75 225.73-13.45L225.73-13.45Q230.18-13.05 232.35-11.28 234.53-9.5 234.53-6.6L234.53-6.6Q234.53-4.25 233.18-2.58 231.83-0.9 229.58-0.05 227.33 0.8 224.73 0.8L224.73 0.8ZM263.02 0.8Q259.27 0.8 255.72-1.07 252.17-2.95 249.82-6.15L249.82-6.15 252.87-8.85Q254.67-6 257.47-4.33 260.27-2.65 263.52-2.65L263.52-2.65Q267.07-2.65 268.92-4.23 270.77-5.8 270.77-8.5L270.77-8.5Q270.77-11.45 268.8-13.03 266.82-14.6 262.52-15.8L262.52-15.8Q251.72-18.45 251.72-25.6L251.72-25.6Q251.72-30.05 254.62-32.45 257.52-34.85 262.67-34.85L262.67-34.85Q266.42-34.85 269.4-33.45 272.37-32.05 274.72-29.15L274.72-29.15 271.77-26.65Q269.97-29.1 267.82-30.28 265.67-31.45 262.67-31.45L262.67-31.45Q259.52-31.45 257.52-29.98 255.52-28.5 255.52-25.95L255.52-25.95Q255.52-23.35 257.37-21.83 259.22-20.3 263.62-19.25L263.62-19.25Q268.82-17.85 271.7-15.4 274.57-12.95 274.57-8.5L274.57-8.5Q274.57-5.75 273.17-3.65 271.77-1.55 269.15-0.38 266.52 0.8 263.02 0.8L263.02 0.8ZM298.37-23.4L301.77-23.4 301.77 10 298.37 10 298.37-3.5Q296.92-1.45 294.8-0.33 292.67 0.8 290.12 0.8L290.12 0.8Q286.77 0.8 284.15-0.8 281.52-2.4 280.05-5.23 278.57-8.05 278.57-11.65L278.57-11.65Q278.57-15.3 280.07-18.15 281.57-21 284.22-22.6 286.87-24.2 290.22-24.2L290.22-24.2Q292.72-24.2 294.82-23.08 296.92-21.95 298.37-19.95L298.37-19.95 298.37-23.4ZM290.12-2.3Q292.52-2.3 294.4-3.5 296.27-4.7 297.32-6.85 298.37-9 298.37-11.7L298.37-11.7Q298.37-14.4 297.32-16.55 296.27-18.7 294.4-19.9 292.52-21.1 290.12-21.1L290.12-21.1Q287.77-21.1 285.92-19.9 284.07-18.7 283.02-16.55 281.97-14.4 281.97-11.65L281.97-11.65Q281.97-8.95 283.02-6.83 284.07-4.7 285.92-3.5 287.77-2.3 290.12-2.3L290.12-2.3ZM325.17-23.4L328.57-23.4 328.57 0 325.17 0 325.17-3.9Q323.97-1.65 321.99-0.43 320.02 0.8 317.42 0.8L317.42 0.8Q314.97 0.8 312.89-0.2 310.82-1.2 309.59-3.15 308.37-5.1 308.37-7.75L308.37-7.75 308.37-23.4 311.77-23.4 311.77-9.25Q311.77-2.3 317.97-2.3L317.97-2.3Q321.57-2.3 323.37-4.85 325.17-7.4 325.17-11.7L325.17-11.7 325.17-23.4ZM353.22-23.4L356.62-23.4 356.62 0 353.22 0 353.22-3.45Q351.77-1.45 349.67-0.33 347.57 0.8 345.07 0.8L345.07 0.8Q341.72 0.8 339.07-0.8 336.42-2.4 334.92-5.25 333.42-8.1 333.42-11.75L333.42-11.75Q333.42-15.35 334.89-18.18 336.37-21 338.99-22.6 341.62-24.2 344.97-24.2L344.97-24.2Q347.52-24.2 349.64-23.08 351.77-21.95 353.22-19.9L353.22-19.9 353.22-23.4ZM344.97-2.3Q347.37-2.3 349.24-3.5 351.12-4.7 352.17-6.85 353.22-9 353.22-11.7L353.22-11.7Q353.22-14.4 352.17-16.55 351.12-18.7 349.24-19.9 347.37-21.1 344.97-21.1L344.97-21.1Q342.62-21.1 340.77-19.9 338.92-18.7 337.87-16.57 336.82-14.45 336.82-11.75L336.82-11.75Q336.82-9 337.87-6.85 338.92-4.7 340.77-3.5 342.62-2.3 344.97-2.3L344.97-2.3ZM374.41-24.2Q375.61-24.2 376.71-23.85L376.71-23.85 376.71-20.75Q375.66-21.25 374.41-21.25L374.41-21.25Q372.26-21.25 370.41-20.05 368.56-18.85 367.44-16.57 366.31-14.3 366.31-11.2L366.31-11.2 366.31 0 362.91 0 362.91-23.4 366.31-23.4 366.31-18.7Q367.66-21.3 369.74-22.75 371.81-24.2 374.41-24.2L374.41-24.2ZM389.46-24.2Q392.61-24.2 395.16-22.65 397.71-21.1 399.16-18.43 400.61-15.75 400.61-12.45L400.61-12.45Q400.61-11.5 400.56-11L400.56-11 381.31-11Q381.51-7.4 383.66-4.85 385.81-2.3 389.51-2.3L389.51-2.3Q392.51-2.3 394.49-3.43 396.46-4.55 397.66-6.55L397.66-6.55 400.36-4.75Q398.71-2.15 396.01-0.68 393.31 0.8 389.61 0.8L389.61 0.8Q386.21 0.8 383.56-0.8 380.91-2.4 379.41-5.25 377.91-8.1 377.91-11.7L377.91-11.7Q377.91-15.3 379.39-18.15 380.86-21 383.49-22.6 386.11-24.2 389.46-24.2L389.46-24.2ZM381.51-13.8L397.21-13.8Q396.71-17.45 394.76-19.28 392.81-21.1 389.46-21.1L389.46-21.1Q386.21-21.1 384.14-19.03 382.06-16.95 381.51-13.8L381.51-13.8Z" opacity="1" transform="matrix(1,0,0,1,0,0)" fill="#096a2e" class="undefined-text-0" data-fill-palette-color="primary" id="text-0"></path></svg></g></svg></g></svg></g></svg></g></svg></g></svg></g></svg></g><path d="M221.715 103.824L221.715 39.249 390.417 39.249 390.417 207.951 221.715 207.951 221.715 143.376 224.2 143.376 224.2 205.466 387.932 205.466 387.932 41.734 224.2 41.734 224.2 103.824Z" fill="#096a2e" stroke="transparent" data-fill-palette-color="primary"></path></svg></g><defs></defs></svg><rect width="395.52" height="247.2" fill="none" stroke="none" visibility="hidden"></rect></g></svg></g></svg>